<svg id="canvas" width="598.426" height="202.263" viewBox="293.647 238.459 598.426 202.263" preserveAspectRatio="xMidYMid meet" class="h-full w-full max-w-4xl text-primary transition-opacity duration-300 opacity-100" xmlns="http://www.w3.org/2000/svg"><g id="canvas-strokes"><path d="M 365.53,242.66 C 364.55 242.05, 363.27 241.43, 360.60 241.46 C 357.94 241.49, 356.03 241.83, 352.21 242.81 C 348.39 243.79, 345.82 244.53, 341.49 246.36 C 337.17 248.20, 334.76 249.46, 330.61 251.97 C 326.46 254.48, 324.18 256.01, 320.75 258.93 C 317.32 261.85, 315.58 263.42, 313.46 266.57 C 311.34 269.73, 310.46 271.48, 310.17 274.71 C 309.87 277.93, 310.32 279.73, 312.00 282.69 C 313.67 285.65, 315.24 286.92, 318.55 289.49 C 321.86 292.07, 324.11 293.14, 328.55 295.55 C 332.99 297.96, 335.73 299.08, 340.72 301.55 C 345.72 304.01, 348.64 305.22, 353.54 307.88 C 358.44 310.55, 361.11 311.91, 365.23 314.86 C 369.34 317.82, 371.35 319.48, 374.12 322.67 C 376.88 325.86, 377.96 327.56, 379.08 330.80 C 380.20 334.03, 380.29 335.53, 379.72 338.83 C 379.16 342.12, 378.41 343.89, 376.25 347.27 C 374.09 350.65, 372.50 352.49, 368.91 355.71 C 365.31 358.94, 362.94 360.60, 358.28 363.40 C 353.61 366.19, 350.77 367.53, 345.59 369.69 C 340.40 371.85, 337.46 372.86, 332.34 374.19 C 327.22 375.52, 324.46 376.00, 319.97 376.36 C 315.48 376.72, 313.21 376.54, 309.89 375.97 C 306.58 375.40, 305.23 374.78, 303.40 373.50 C 301.57 372.22, 301.30 371.19, 300.74 369.56 C 300.18 367.92, 300.56 366.98, 300.59 365.34 C 300.63 363.69, 301.23 362.25, 300.92 361.33 C 300.61 360.42, 299.85 360.04, 299.05 360.77 C 298.24 361.49, 297.24 362.94, 296.90 364.95 C 296.56 366.96, 296.44 368.52, 297.34 370.82 C 298.23 373.11, 298.95 374.77, 301.37 376.43 C 303.78 378.09, 305.63 378.58, 309.40 379.11 C 313.18 379.64, 315.51 379.58, 320.22 379.07 C 324.94 378.57, 327.72 378.02, 332.98 376.59 C 338.24 375.17, 341.20 374.15, 346.52 371.95 C 351.84 369.75, 354.73 368.43, 359.58 365.60 C 364.43 362.77, 366.92 361.15, 370.76 357.81 C 374.60 354.47, 376.38 352.60, 378.79 348.91 C 381.19 345.21, 382.15 343.16, 382.77 339.34 C 383.39 335.52, 383.20 333.51, 381.88 329.81 C 380.56 326.12, 379.20 324.26, 376.17 320.86 C 373.13 317.46, 370.99 315.83, 366.70 312.80 C 362.41 309.77, 359.69 308.42, 354.73 305.70 C 349.77 302.99, 346.85 301.75, 341.90 299.21 C 336.95 296.67, 334.24 295.46, 329.98 292.99 C 325.72 290.53, 323.59 289.31, 320.61 286.90 C 317.63 284.48, 316.47 283.29, 315.09 280.92 C 313.70 278.54, 313.46 277.53, 313.69 275.02 C 313.91 272.52, 314.40 271.16, 316.21 268.40 C 318.03 265.65, 319.56 264.01, 322.75 261.25 C 325.94 258.49, 328.17 256.93, 332.17 254.59 C 336.17 252.24, 338.56 251.09, 342.75 249.51 C 346.95 247.93, 349.48 247.47, 353.13 246.68 C 356.77 245.90, 358.50 246.04, 360.98 245.60 C 363.45 245.17, 364.60 245.10, 365.51 244.51 C 366.43 243.92, 366.52 243.27, 365.53 242.66" style="stroke: black; fill: black;"/><path d="M 426.96,316.82 C 426.44 316.07, 425.71 315.44, 423.90 314.90 C 422.09 314.35, 420.69 313.86, 417.91 314.10 C 415.13 314.35, 413.12 314.65, 409.99 316.12 C 406.85 317.58, 405.11 318.77, 402.25 321.45 C 399.40 324.12, 397.87 325.88, 395.71 329.50 C 393.55 333.12, 392.50 335.39, 391.47 339.53 C 390.43 343.68, 390.16 346.17, 390.54 350.24 C 390.92 354.30, 391.51 356.53, 393.36 359.87 C 395.21 363.20, 396.70 364.82, 399.77 366.91 C 402.84 369.01, 404.92 369.78, 408.70 370.32 C 412.47 370.86, 414.75 370.67, 418.64 369.63 C 422.53 368.59, 424.68 367.53, 428.14 365.12 C 431.60 362.71, 433.34 361.01, 435.93 357.59 C 438.52 354.17, 439.65 352.00, 441.09 348.01 C 442.54 344.02, 442.91 341.62, 443.16 337.65 C 443.42 333.67, 443.20 331.63, 442.38 328.14 C 441.57 324.66, 440.75 322.83, 439.08 320.24 C 437.41 317.65, 436.08 316.52, 434.04 315.18 C 431.99 313.84, 430.63 313.54, 428.86 313.54 C 427.10 313.53, 426.04 314.08, 425.23 315.16 C 424.42 316.23, 424.23 317.43, 424.83 318.91 C 425.43 320.39, 426.29 321.39, 428.22 322.55 C 430.16 323.72, 431.61 324.22, 434.51 324.73 C 437.41 325.24, 439.31 325.06, 442.73 325.09 C 446.15 325.12, 448.09 324.96, 451.62 324.87 C 455.15 324.78, 457.11 324.60, 460.39 324.64 C 463.67 324.68, 465.40 324.80, 468.02 325.09 C 470.63 325.37, 471.75 325.37, 473.46 326.07 C 475.18 326.77, 475.75 327.21, 476.61 328.57 C 477.48 329.92, 477.58 330.84, 477.78 332.83 C 477.98 334.82, 477.76 336.15, 477.63 338.52 C 477.49 340.89, 477.24 342.38, 477.11 344.67 C 476.99 346.97, 476.71 348.25, 477.02 350.00 C 477.33 351.76, 477.64 352.72, 478.66 353.44 C 479.68 354.16, 480.51 354.33, 482.10 353.59 C 483.69 352.85, 484.73 351.96, 486.62 349.73 C 488.50 347.50, 489.26 345.50, 491.53 342.45 C 493.79 339.40, 495.25 337.38, 497.92 334.48 C 500.59 331.57, 502.26 329.95, 504.89 327.93 C 507.52 325.91, 508.91 325.20, 511.05 324.36 C 513.20 323.52, 514.07 323.33, 515.61 323.72 C 517.16 324.11, 517.71 324.73, 518.78 326.32 C 519.85 327.92, 520.15 329.21, 520.96 331.69 C 521.77 334.17, 522.22 335.80, 522.83 338.74 C 523.43 341.68, 523.46 343.55, 523.97 346.41 C 524.48 349.26, 524.73 350.91, 525.37 353.03 C 526.01 355.14, 526.53 355.88, 527.16 356.97 C 527.79 358.06, 528.07 358.23, 528.53 358.48 C 528.99 358.72, 529.21 358.61, 529.45 358.18 C 529.70 357.75, 529.69 357.52, 529.74 356.32 C 529.80 355.12, 529.93 354.33, 529.75 352.18 C 529.56 350.04, 529.28 348.48, 528.83 345.59 C 528.38 342.71, 528.15 340.90, 527.50 337.78 C 526.85 334.66, 526.71 332.80, 525.58 330.00 C 524.46 327.19, 523.70 325.68, 521.87 323.77 C 520.05 321.86, 518.87 321.05, 516.45 320.44 C 514.02 319.83, 512.54 319.80, 509.76 320.70 C 506.99 321.59, 505.49 322.67, 502.57 324.90 C 499.65 327.13, 498.05 328.89, 495.15 331.84 C 492.25 334.79, 490.65 336.75, 488.07 339.65 C 485.50 342.55, 483.95 344.03, 482.28 346.33 C 480.62 348.62, 480.24 349.88, 479.75 351.11 C 479.26 352.33, 479.56 352.64, 479.84 352.47 C 480.12 352.29, 480.68 351.69, 481.17 350.23 C 481.65 348.77, 481.94 347.49, 482.27 345.17 C 482.59 342.85, 482.80 341.28, 482.79 338.64 C 482.78 336.01, 482.84 334.46, 482.21 332.01 C 481.59 329.56, 481.10 328.27, 479.67 326.39 C 478.24 324.52, 477.28 323.77, 475.07 322.63 C 472.85 321.50, 471.50 321.12, 468.57 320.70 C 465.64 320.29, 463.81 320.53, 460.41 320.54 C 457.01 320.55, 455.06 320.77, 451.57 320.76 C 448.08 320.76, 446.17 320.82, 442.96 320.52 C 439.75 320.21, 438.07 319.74, 435.53 319.23 C 433.00 318.73, 431.91 318.45, 430.30 318.00 C 428.69 317.54, 428.16 317.24, 427.47 316.97 C 426.78 316.69, 426.66 316.64, 426.85 316.63 C 427.03 316.61, 427.44 316.52, 428.41 316.88 C 429.38 317.25, 430.27 317.32, 431.69 318.46 C 433.11 319.60, 434.09 320.46, 435.51 322.58 C 436.94 324.70, 437.95 326.09, 438.80 329.07 C 439.66 332.05, 439.93 333.89, 439.78 337.46 C 439.62 341.03, 439.31 343.28, 438.03 346.91 C 436.74 350.55, 435.71 352.54, 433.36 355.64 C 431.00 358.73, 429.37 360.25, 426.25 362.38 C 423.14 364.52, 421.17 365.41, 417.76 366.30 C 414.35 367.19, 412.40 367.29, 409.20 366.84 C 405.99 366.38, 404.30 365.75, 401.73 364.02 C 399.16 362.29, 397.92 361.03, 396.34 358.21 C 394.77 355.39, 394.19 353.50, 393.86 349.93 C 393.54 346.36, 393.74 344.08, 394.71 340.35 C 395.67 336.63, 396.65 334.52, 398.67 331.32 C 400.70 328.12, 402.19 326.52, 404.82 324.34 C 407.44 322.16, 409.07 321.42, 411.79 320.42 C 414.52 319.43, 416.13 319.67, 418.46 319.39 C 420.79 319.10, 421.82 319.15, 423.43 319.00 C 425.04 318.84, 425.80 319.05, 426.51 318.62 C 427.21 318.18, 427.48 317.56, 426.96 316.82" style="stroke: black; fill: black;"/><path d="M 576.21,321.86 C 575.78 321.12, 575.08 320.53, 573.55 320.04 C 572.01 319.55, 570.89 319.22, 568.54 319.42 C 566.19 319.62, 564.41 319.85, 561.79 321.03 C 559.17 322.21, 557.66 323.29, 555.43 325.33 C 553.20 327.38, 552.03 328.83, 550.64 331.24 C 549.24 333.66, 548.66 335.11, 548.46 337.40 C 548.27 339.68, 548.57 341.00, 549.66 342.68 C 550.75 344.35, 551.82 345.14, 553.93 345.77 C 556.04 346.40, 557.57 346.39, 560.22 345.85 C 562.87 345.30, 564.47 344.53, 567.17 343.03 C 569.88 341.52, 571.33 340.27, 573.75 338.32 C 576.16 336.37, 577.49 335.12, 579.25 333.29 C 581.02 331.47, 581.68 330.30, 582.57 329.19 C 583.46 328.08, 583.47 327.49, 583.70 327.74 C 583.92 327.98, 583.48 328.48, 583.71 330.43 C 583.94 332.37, 584.24 333.91, 584.86 337.46 C 585.48 341.02, 586.02 343.37, 586.82 348.20 C 587.63 353.03, 588.15 355.99, 588.87 361.60 C 589.60 367.20, 590.00 370.30, 590.44 376.22 C 590.89 382.13, 591.13 385.39, 591.09 391.18 C 591.05 396.96, 591.01 399.95, 590.25 405.14 C 589.50 410.32, 588.96 412.86, 587.33 417.09 C 585.69 421.32, 584.51 423.32, 582.07 426.30 C 579.62 429.27, 578.03 430.41, 575.10 431.96 C 572.17 433.52, 570.46 433.87, 567.42 434.07 C 564.37 434.27, 562.64 433.98, 559.88 432.96 C 557.12 431.94, 555.67 430.99, 553.63 428.98 C 551.59 426.96, 550.63 425.61, 549.66 422.89 C 548.69 420.16, 548.37 418.76, 548.78 415.36 C 549.18 411.96, 549.69 409.92, 551.68 405.90 C 553.67 401.88, 555.22 399.59, 558.73 395.25 C 562.25 390.91, 564.60 388.67, 569.26 384.21 C 573.91 379.76, 576.71 377.44, 582.02 372.98 C 587.33 368.52, 590.31 366.29, 595.81 361.93 C 601.30 357.58, 604.23 355.40, 609.50 351.22 C 614.78 347.03, 617.42 344.99, 622.17 341.00 C 626.93 337.01, 629.23 335.06, 633.27 331.26 C 637.31 327.46, 639.19 325.60, 642.39 321.99 C 645.59 318.38, 646.96 316.65, 649.27 313.21 C 651.59 309.77, 652.50 308.06, 653.97 304.78 C 655.43 301.49, 655.94 299.83, 656.61 296.79 C 657.27 293.75, 657.32 292.12, 657.28 289.56 C 657.25 286.99, 657.06 285.81, 656.43 283.96 C 655.81 282.12, 654.93 280.95, 654.16 280.34 C 653.38 279.73, 652.80 280.06, 652.57 280.93 C 652.34 281.79, 652.91 282.95, 653.01 284.67 C 653.12 286.39, 653.17 287.26, 653.11 289.53 C 653.04 291.81, 653.13 293.25, 652.68 296.04 C 652.23 298.84, 652.03 300.38, 650.86 303.50 C 649.69 306.62, 648.92 308.27, 646.84 311.64 C 644.77 315.01, 643.51 316.74, 640.48 320.34 C 637.46 323.94, 635.65 325.82, 631.72 329.64 C 627.79 333.46, 625.53 335.43, 620.85 339.44 C 616.16 343.45, 613.54 345.50, 608.29 349.69 C 603.04 353.89, 600.12 356.07, 594.61 360.42 C 589.10 364.77, 586.11 367.00, 580.73 371.44 C 575.36 375.88, 572.54 378.17, 567.75 382.61 C 562.96 387.06, 560.53 389.25, 556.80 393.64 C 553.06 398.03, 551.35 400.31, 549.08 404.57 C 546.82 408.82, 546.04 411.01, 545.46 414.91 C 544.87 418.81, 545.05 420.72, 546.14 424.08 C 547.23 427.44, 548.41 429.24, 550.91 431.72 C 553.40 434.21, 555.25 435.33, 558.61 436.50 C 561.97 437.68, 564.09 437.92, 567.70 437.58 C 571.31 437.24, 573.33 436.68, 576.65 434.78 C 579.97 432.89, 581.70 431.46, 584.32 428.10 C 586.94 424.74, 588.09 422.53, 589.75 418.00 C 591.41 413.48, 591.90 410.83, 592.63 405.47 C 593.35 400.11, 593.36 397.07, 593.40 391.19 C 593.44 385.31, 593.19 382.03, 592.80 376.05 C 592.42 370.07, 592.03 366.96, 591.48 361.30 C 590.92 355.65, 590.51 352.67, 590.03 347.78 C 589.54 342.88, 589.53 340.51, 589.06 336.83 C 588.59 333.14, 588.58 331.53, 587.69 329.35 C 586.81 327.17, 586.06 326.51, 584.63 325.91 C 583.20 325.31, 582.28 325.58, 580.54 326.33 C 578.80 327.09, 577.91 328.07, 575.94 329.69 C 573.96 331.31, 572.93 332.67, 570.66 334.42 C 568.40 336.18, 566.97 337.15, 564.62 338.47 C 562.27 339.79, 560.92 340.33, 558.93 341.02 C 556.94 341.72, 555.97 341.95, 554.66 341.94 C 553.35 341.92, 552.85 341.71, 552.39 340.94 C 551.94 340.17, 551.91 339.50, 552.37 338.09 C 552.83 336.67, 553.39 335.63, 554.70 333.87 C 556.00 332.11, 557.03 330.84, 558.90 329.27 C 560.77 327.71, 561.96 326.95, 564.03 326.03 C 566.11 325.11, 567.45 325.06, 569.27 324.67 C 571.09 324.29, 571.84 324.30, 573.13 324.11 C 574.42 323.91, 575.10 324.15, 575.72 323.70 C 576.34 323.25, 576.65 322.59, 576.21 321.86" style="stroke: black; fill: black;"/><path d="M 658.89,262.25 C 658.33 263.00, 658.12 263.73, 657.85 265.98 C 657.58 268.22, 657.67 269.74, 657.53 273.48 C 657.40 277.23, 657.43 279.76, 657.18 284.70 C 656.93 289.65, 656.69 292.70, 656.29 298.21 C 655.88 303.73, 655.53 306.78, 655.16 312.28 C 654.79 317.77, 654.52 320.71, 654.43 325.70 C 654.35 330.69, 654.31 333.15, 654.74 337.22 C 655.17 341.29, 655.32 343.07, 656.58 346.06 C 657.84 349.04, 658.76 350.29, 661.06 352.16 C 663.35 354.03, 664.96 354.72, 668.05 355.43 C 671.14 356.13, 672.94 355.94, 676.51 355.67 C 680.08 355.39, 682.03 354.89, 685.90 354.05 C 689.77 353.21, 691.96 352.59, 695.86 351.47 C 699.75 350.35, 701.99 349.67, 705.38 348.46 C 708.77 347.25, 711.44 346.41, 712.81 345.42 C 714.18 344.44, 713.93 343.59, 712.24 343.53 C 710.55 343.48, 707.83 344.25, 704.36 345.15 C 700.89 346.05, 698.73 346.97, 694.89 348.03 C 691.05 349.09, 688.88 349.72, 685.15 350.46 C 681.42 351.20, 679.49 351.53, 676.24 351.72 C 672.99 351.90, 671.49 351.88, 668.90 351.39 C 666.31 350.90, 665.14 350.62, 663.31 349.28 C 661.48 347.93, 660.87 347.16, 659.75 344.67 C 658.63 342.19, 658.24 340.65, 657.71 336.86 C 657.18 333.07, 657.09 330.60, 657.09 325.72 C 657.09 320.84, 657.32 317.90, 657.70 312.45 C 658.08 306.99, 658.44 303.94, 658.98 298.44 C 659.52 292.95, 659.87 289.90, 660.39 284.95 C 660.91 280.00, 661.29 277.49, 661.57 273.71 C 661.86 269.93, 662.02 268.35, 661.83 266.04 C 661.64 263.74, 661.21 262.97, 660.62 262.21 C 660.03 261.45, 659.44 261.49, 658.89 262.25" style="stroke: black; fill: black;"/><path d="M 763.44,310.64 C 763.03 309.94, 762.52 309.42, 760.94 308.84 C 759.36 308.25, 758.15 307.64, 755.51 307.72 C 752.88 307.80, 750.95 308.01, 747.78 309.26 C 744.61 310.50, 742.80 311.61, 739.67 313.93 C 736.54 316.25, 734.81 317.76, 732.12 320.86 C 729.43 323.96, 728.06 325.94, 726.24 329.44 C 724.42 332.93, 723.60 334.93, 723.02 338.34 C 722.44 341.75, 722.49 343.69, 723.33 346.49 C 724.18 349.30, 725.18 350.76, 727.26 352.37 C 729.34 353.98, 730.89 354.53, 733.73 354.55 C 736.57 354.57, 738.41 354.02, 741.46 352.45 C 744.51 350.87, 746.09 349.43, 748.98 346.66 C 751.87 343.90, 753.39 342.03, 755.91 338.62 C 758.43 335.21, 759.65 333.00, 761.58 329.60 C 763.51 326.21, 764.69 324.12, 765.57 321.66 C 766.44 319.19, 766.13 317.98, 765.95 317.28 C 765.78 316.58, 765.16 316.81, 764.69 318.16 C 764.23 319.52, 763.64 321.08, 763.62 324.05 C 763.60 327.02, 763.97 329.41, 764.59 333.01 C 765.22 336.60, 765.63 338.80, 766.73 342.02 C 767.84 345.23, 768.44 346.87, 770.13 349.08 C 771.82 351.29, 772.93 352.22, 775.17 353.06 C 777.41 353.89, 778.83 353.99, 781.33 353.25 C 783.83 352.51, 785.20 351.61, 787.65 349.37 C 790.11 347.12, 791.24 345.35, 793.61 342.04 C 795.98 338.73, 797.27 336.51, 799.51 332.83 C 801.75 329.15, 802.89 326.89, 804.81 323.65 C 806.74 320.41, 807.86 318.76, 809.12 316.62 C 810.38 314.49, 810.57 313.51, 811.12 313.00 C 811.67 312.48, 811.61 312.87, 811.86 314.06 C 812.12 315.24, 811.94 316.45, 812.39 318.93 C 812.84 321.41, 813.38 323.21, 814.09 326.44 C 814.81 329.67, 815.19 331.83, 815.95 335.09 C 816.72 338.35, 816.87 340.16, 817.91 342.74 C 818.95 345.33, 819.61 346.56, 821.17 348.02 C 822.73 349.47, 823.67 349.96, 825.71 350.01 C 827.75 350.07, 829.05 349.74, 831.37 348.30 C 833.69 346.87, 834.77 345.37, 837.31 342.83 C 839.84 340.30, 841.21 338.45, 844.04 335.61 C 846.87 332.78, 848.59 331.05, 851.47 328.68 C 854.36 326.30, 855.97 325.15, 858.46 323.76 C 860.96 322.37, 862.03 321.91, 863.93 321.72 C 865.82 321.54, 866.56 321.77, 867.96 322.85 C 869.36 323.92, 869.70 324.87, 870.93 327.08 C 872.16 329.29, 872.85 330.86, 874.11 333.91 C 875.37 336.96, 876.00 338.90, 877.22 342.32 C 878.45 345.74, 878.93 347.79, 880.23 351.00 C 881.54 354.21, 882.28 356.01, 883.74 358.38 C 885.21 360.75, 886.49 362.14, 887.56 362.86 C 888.62 363.59, 889.12 363.27, 889.07 362.01 C 889.01 360.76, 888.30 359.09, 887.29 356.58 C 886.27 354.07, 885.26 352.60, 884.01 349.48 C 882.76 346.36, 882.21 344.41, 881.03 340.98 C 879.86 337.55, 879.37 335.57, 878.13 332.32 C 876.89 329.06, 876.47 327.20, 874.83 324.70 C 873.19 322.21, 872.15 321.14, 869.93 319.83 C 867.71 318.53, 866.38 318.09, 863.71 318.18 C 861.05 318.27, 859.52 318.76, 856.59 320.29 C 853.67 321.81, 852.16 323.29, 849.11 325.80 C 846.06 328.31, 844.33 330.05, 841.35 332.82 C 838.37 335.59, 836.74 337.28, 834.22 339.63 C 831.69 341.98, 830.45 343.11, 828.71 344.58 C 826.97 346.05, 826.52 346.73, 825.51 347.00 C 824.49 347.26, 824.30 347.05, 823.64 345.90 C 822.97 344.76, 822.83 343.65, 822.19 341.29 C 821.56 338.93, 821.09 337.27, 820.45 334.10 C 819.81 330.93, 819.61 328.75, 818.99 325.45 C 818.38 322.14, 818.30 320.19, 817.37 317.58 C 816.45 314.97, 815.77 313.73, 814.36 312.40 C 812.95 311.07, 812.02 310.56, 810.31 310.94 C 808.59 311.32, 807.52 312.12, 805.78 314.29 C 804.04 316.46, 803.46 318.46, 801.60 321.80 C 799.73 325.13, 798.69 327.38, 796.47 330.96 C 794.26 334.55, 792.88 336.69, 790.51 339.73 C 788.15 342.76, 786.75 344.15, 784.65 346.13 C 782.55 348.11, 781.67 348.87, 780.02 349.63 C 778.37 350.39, 777.71 350.51, 776.39 349.94 C 775.08 349.38, 774.54 348.66, 773.46 346.81 C 772.39 344.96, 771.79 343.60, 771.01 340.70 C 770.23 337.80, 769.95 335.70, 769.58 332.30 C 769.20 328.89, 769.55 326.58, 769.13 323.68 C 768.71 320.78, 768.33 319.25, 767.49 317.79 C 766.64 316.32, 766.08 315.94, 764.91 316.35 C 763.74 316.76, 762.99 317.55, 761.65 319.84 C 760.32 322.13, 759.97 324.46, 758.25 327.79 C 756.53 331.13, 755.43 333.29, 753.05 336.50 C 750.68 339.72, 749.09 341.42, 746.37 343.85 C 743.66 346.28, 742.04 347.31, 739.48 348.64 C 736.93 349.98, 735.60 350.34, 733.59 350.52 C 731.58 350.71, 730.74 350.58, 729.45 349.56 C 728.15 348.55, 727.64 347.56, 727.12 345.44 C 726.60 343.32, 726.37 341.85, 726.84 338.98 C 727.30 336.11, 727.85 334.24, 729.46 331.09 C 731.06 327.95, 732.35 326.04, 734.84 323.26 C 737.34 320.48, 739.04 319.08, 741.95 317.19 C 744.85 315.31, 746.60 314.67, 749.37 313.83 C 752.15 313.00, 753.64 313.24, 755.83 313.03 C 758.02 312.83, 758.91 312.95, 760.34 312.82 C 761.77 312.69, 762.36 312.81, 762.98 312.37 C 763.60 311.94, 763.84 311.35, 763.44 310.64" style="stroke: black; fill: black;"/></g></svg>